<mxfile host="drawio-plugin" modified="2023-10-25T11:11:52.459Z" agent="5.0 (Windows NT 10.0; Win64; x64) AppleWebKit/537.36 (KHTML, like Gecko) Chrome/111.0.0.0 Safari/537.36" etag="9hbwuT3_JG-qrPWlCpsy" version="20.5.3" type="embed"><diagram id="23iRSUPoRavnBvh4doch" name="Page-1"><mxGraphModel dx="1160" dy="878" grid="1" gridSize="10" guides="1" tooltips="1" connect="1" arrows="1" fold="1" page="1" pageScale="1" pageWidth="827" pageHeight="1169" math="0" shadow="0"><root><mxCell id="0"/><mxCell id="1" parent="0"/><mxCell id="86" value="Laba2" style="swimlane;whiteSpace=wrap;html=1;" vertex="1" parent="1"><mxGeometry x="330" y="180" width="1650" height="1170" as="geometry"/></mxCell><mxCell id="87" value="Package MyPokemons" style="swimlane;whiteSpace=wrap;html=1;startSize=23;" vertex="1" parent="86"><mxGeometry x="280" y="50" width="576" height="350" as="geometry"/></mxCell><mxCell id="88" value="Groudon" style="html=1;whiteSpace=wrap;" vertex="1" parent="87"><mxGeometry x="140" y="130" width="80" height="30" as="geometry"/></mxCell><mxCell id="115" style="edgeStyle=orthogonalEdgeStyle;rounded=0;jumpSize=3;orthogonalLoop=1;jettySize=auto;html=1;entryX=0.5;entryY=0;entryDx=0;entryDy=0;strokeWidth=1;" edge="1" parent="87" source="89" target="93"><mxGeometry relative="1" as="geometry"/></mxCell><mxCell id="89" value="Honchkrow" style="html=1;whiteSpace=wrap;" vertex="1" parent="87"><mxGeometry x="240" y="130" width="80" height="30" as="geometry"/></mxCell><mxCell id="116" style="edgeStyle=orthogonalEdgeStyle;rounded=0;jumpSize=3;orthogonalLoop=1;jettySize=auto;html=1;entryX=0.5;entryY=0;entryDx=0;entryDy=0;strokeWidth=1;" edge="1" parent="87" source="90" target="92"><mxGeometry relative="1" as="geometry"/></mxCell><mxCell id="90" value="Igglybuff" style="html=1;whiteSpace=wrap;" vertex="1" parent="87"><mxGeometry x="350" y="130" width="80" height="30" as="geometry"/></mxCell><mxCell id="91" value="Wigglytuff" style="html=1;whiteSpace=wrap;" vertex="1" parent="87"><mxGeometry x="340" y="250" width="100" height="30" as="geometry"/></mxCell><mxCell id="117" style="edgeStyle=orthogonalEdgeStyle;rounded=0;jumpSize=3;orthogonalLoop=1;jettySize=auto;html=1;entryX=0.5;entryY=0;entryDx=0;entryDy=0;strokeWidth=1;" edge="1" parent="87" source="92" target="91"><mxGeometry relative="1" as="geometry"/></mxCell><mxCell id="92" value="Jigglybuff" style="html=1;whiteSpace=wrap;" vertex="1" parent="87"><mxGeometry x="350" y="193" width="80" height="30" as="geometry"/></mxCell><mxCell id="93" value="Murkrow" style="html=1;whiteSpace=wrap;" vertex="1" parent="87"><mxGeometry x="240" y="193" width="80" height="30" as="geometry"/></mxCell><mxCell id="217" style="edgeStyle=orthogonalEdgeStyle;rounded=0;jumpSize=3;orthogonalLoop=1;jettySize=auto;html=1;entryX=0.5;entryY=0;entryDx=0;entryDy=0;strokeWidth=1;" edge="1" parent="87" source="216" target="88"><mxGeometry relative="1" as="geometry"/></mxCell><mxCell id="218" style="edgeStyle=orthogonalEdgeStyle;rounded=0;jumpSize=3;orthogonalLoop=1;jettySize=auto;html=1;entryX=0.5;entryY=0;entryDx=0;entryDy=0;strokeWidth=1;" edge="1" parent="87" source="216" target="89"><mxGeometry relative="1" as="geometry"/></mxCell><mxCell id="219" style="edgeStyle=orthogonalEdgeStyle;rounded=0;jumpSize=3;orthogonalLoop=1;jettySize=auto;html=1;entryX=0.5;entryY=0;entryDx=0;entryDy=0;strokeWidth=1;" edge="1" parent="87" source="216" target="90"><mxGeometry relative="1" as="geometry"><Array as="points"><mxPoint x="265" y="110"/><mxPoint x="390" y="110"/></Array></mxGeometry></mxCell><mxCell id="216" value="Pokemon" style="html=1;" vertex="1" parent="87"><mxGeometry x="210" y="40" width="110" height="50" as="geometry"/></mxCell><mxCell id="94" value="Package Main" style="swimlane;fontStyle=0;childLayout=stackLayout;horizontal=1;startSize=26;fillColor=none;horizontalStack=0;resizeParent=1;resizeParentMax=0;resizeLast=0;collapsible=1;marginBottom=0;" vertex="1" parent="86"><mxGeometry x="1230" y="210" width="140" height="90" as="geometry"/></mxCell><mxCell id="95" value="Program&lt;br&gt;" style="html=1;whiteSpace=wrap;" vertex="1" parent="94"><mxGeometry y="26" width="140" height="64" as="geometry"/></mxCell><mxCell id="151" value="Package MyMoves" style="swimlane;whiteSpace=wrap;html=1;" vertex="1" parent="86"><mxGeometry x="60" y="470" width="1560" height="670" as="geometry"/></mxCell><mxCell id="152" value="Package Igglybuff" style="swimlane;fontStyle=0;childLayout=stackLayout;horizontal=1;startSize=26;fillColor=none;horizontalStack=0;resizeParent=1;resizeParentMax=0;resizeLast=0;collapsible=1;marginBottom=0;" vertex="1" parent="151"><mxGeometry x="310" y="82" width="140" height="70" as="geometry"/></mxCell><mxCell id="153" value="DreamEater" style="html=1;" vertex="1" parent="152"><mxGeometry y="26" width="140" height="24" as="geometry"/></mxCell><mxCell id="154" value="Sing" style="html=1;" vertex="1" parent="152"><mxGeometry y="50" width="140" height="20" as="geometry"/></mxCell><mxCell id="157" value="Package Groudon" style="swimlane;fontStyle=1;align=center;verticalAlign=top;childLayout=stackLayout;horizontal=1;startSize=26;horizontalStack=0;resizeParent=1;resizeParentMax=0;resizeLast=0;collapsible=1;marginBottom=0;" vertex="1" parent="151"><mxGeometry x="70" y="82" width="150" height="74" as="geometry"/></mxCell><mxCell id="158" value="FireBlast" style="html=1;" vertex="1" parent="157"><mxGeometry y="26" width="150" height="24" as="geometry"/></mxCell><mxCell id="159" value="FocusBlast" style="html=1;" vertex="1" parent="157"><mxGeometry y="50" width="150" height="24" as="geometry"/></mxCell><mxCell id="162" value="Package Wigglytuff" style="swimlane;fontStyle=1;align=center;verticalAlign=top;childLayout=stackLayout;horizontal=1;startSize=26;horizontalStack=0;resizeParent=1;resizeParentMax=0;resizeLast=0;collapsible=1;marginBottom=0;" vertex="1" parent="151"><mxGeometry x="1050" y="82" width="160" height="56" as="geometry"/></mxCell><mxCell id="163" value="DazzlingGleam" style="html=1;" vertex="1" parent="162"><mxGeometry y="26" width="160" height="30" as="geometry"/></mxCell><mxCell id="164" value="Package Murkrow" style="swimlane;fontStyle=1;align=center;verticalAlign=top;childLayout=stackLayout;horizontal=1;startSize=26;horizontalStack=0;resizeParent=1;resizeParentMax=0;resizeLast=0;collapsible=1;marginBottom=0;" vertex="1" parent="151"><mxGeometry x="550" y="82" width="160" height="94" as="geometry"/></mxCell><mxCell id="165" value="Swagger" style="html=1;" vertex="1" parent="164"><mxGeometry y="26" width="160" height="24" as="geometry"/></mxCell><mxCell id="166" value="ShadowBall" style="html=1;" vertex="1" parent="164"><mxGeometry y="50" width="160" height="24" as="geometry"/></mxCell><mxCell id="167" value="WingAttack" style="html=1;" vertex="1" parent="164"><mxGeometry y="74" width="160" height="20" as="geometry"/></mxCell><mxCell id="168" value="Package Honchkrow" style="swimlane;fontStyle=1;align=center;verticalAlign=top;childLayout=stackLayout;horizontal=1;startSize=26;horizontalStack=0;resizeParent=1;resizeParentMax=0;resizeLast=0;collapsible=1;marginBottom=0;" vertex="1" parent="151"><mxGeometry x="800" y="82" width="160" height="46" as="geometry"/></mxCell><mxCell id="169" value="NightSlash" style="html=1;" vertex="1" parent="168"><mxGeometry y="26" width="160" height="20" as="geometry"/></mxCell><mxCell id="179" value="Package Jigglybuff" style="swimlane;fontStyle=0;childLayout=stackLayout;horizontal=1;startSize=26;fillColor=none;horizontalStack=0;resizeParent=1;resizeParentMax=0;resizeLast=0;collapsible=1;marginBottom=0;" vertex="1" parent="151"><mxGeometry x="1340" y="82" width="140" height="50" as="geometry"/></mxCell><mxCell id="180" value="HyperVoice" style="html=1;" vertex="1" parent="179"><mxGeometry y="26" width="140" height="24" as="geometry"/></mxCell><mxCell id="186" style="edgeStyle=orthogonalEdgeStyle;rounded=0;jumpSize=3;orthogonalLoop=1;jettySize=auto;html=1;entryX=0.5;entryY=0;entryDx=0;entryDy=0;strokeWidth=1;" edge="1" parent="151" source="181" target="184"><mxGeometry relative="1" as="geometry"/></mxCell><mxCell id="181" value="SpecialMove" style="html=1;" vertex="1" parent="151"><mxGeometry x="427" y="320" width="110" height="50" as="geometry"/></mxCell><mxCell id="187" style="edgeStyle=orthogonalEdgeStyle;rounded=0;jumpSize=3;orthogonalLoop=1;jettySize=auto;html=1;entryX=0.5;entryY=0;entryDx=0;entryDy=0;strokeWidth=1;" edge="1" parent="151" source="182" target="184"><mxGeometry relative="1" as="geometry"/></mxCell><mxCell id="182" value="PhysicalMove" style="html=1;" vertex="1" parent="151"><mxGeometry x="725" y="320" width="110" height="50" as="geometry"/></mxCell><mxCell id="188" style="edgeStyle=orthogonalEdgeStyle;rounded=0;jumpSize=3;orthogonalLoop=1;jettySize=auto;html=1;entryX=0.5;entryY=0;entryDx=0;entryDy=0;strokeWidth=1;" edge="1" parent="151" source="183" target="185"><mxGeometry relative="1" as="geometry"/></mxCell><mxCell id="183" value="StatusMove" style="html=1;" vertex="1" parent="151"><mxGeometry x="1120" y="320" width="110" height="50" as="geometry"/></mxCell><mxCell id="189" style="edgeStyle=orthogonalEdgeStyle;rounded=0;jumpSize=3;orthogonalLoop=1;jettySize=auto;html=1;entryX=0.5;entryY=0;entryDx=0;entryDy=0;strokeWidth=1;" edge="1" parent="151" source="184" target="185"><mxGeometry relative="1" as="geometry"/></mxCell><mxCell id="184" value="DamageMove" style="html=1;" vertex="1" parent="151"><mxGeometry x="575" y="450" width="110" height="50" as="geometry"/></mxCell><mxCell id="185" value="Move" style="html=1;" vertex="1" parent="151"><mxGeometry x="950" y="490" width="110" height="50" as="geometry"/></mxCell><mxCell id="197" style="edgeStyle=orthogonalEdgeStyle;rounded=0;jumpSize=3;orthogonalLoop=1;jettySize=auto;html=1;entryX=0;entryY=0.5;entryDx=0;entryDy=0;strokeWidth=1;" edge="1" parent="151" source="161" target="181"><mxGeometry relative="1" as="geometry"><Array as="points"><mxPoint x="290" y="167"/><mxPoint x="290" y="345"/></Array></mxGeometry></mxCell><mxCell id="161" value="Overheat" style="html=1;" vertex="1" parent="151"><mxGeometry x="70" y="156" width="150" height="22" as="geometry"/></mxCell><mxCell id="204" style="edgeStyle=orthogonalEdgeStyle;rounded=0;jumpSize=3;orthogonalLoop=1;jettySize=auto;html=1;entryX=0.5;entryY=0;entryDx=0;entryDy=0;strokeWidth=1;" edge="1" parent="151" source="160" target="182"><mxGeometry relative="1" as="geometry"><Array as="points"><mxPoint x="145" y="231"/><mxPoint x="780" y="231"/></Array></mxGeometry></mxCell><mxCell id="160" value="ShadowClaw" style="html=1;" vertex="1" parent="151"><mxGeometry x="70" y="178" width="150" height="24" as="geometry"/></mxCell><mxCell id="195" style="edgeStyle=orthogonalEdgeStyle;rounded=0;jumpSize=3;orthogonalLoop=1;jettySize=auto;html=1;entryX=0;entryY=0.5;entryDx=0;entryDy=0;strokeWidth=1;" edge="1" parent="151" source="158" target="181"><mxGeometry relative="1" as="geometry"><Array as="points"><mxPoint x="290" y="120"/><mxPoint x="290" y="345"/></Array></mxGeometry></mxCell><mxCell id="196" style="edgeStyle=orthogonalEdgeStyle;rounded=0;jumpSize=3;orthogonalLoop=1;jettySize=auto;html=1;entryX=0;entryY=0.5;entryDx=0;entryDy=0;strokeWidth=1;" edge="1" parent="151" source="159" target="181"><mxGeometry relative="1" as="geometry"><Array as="points"><mxPoint x="290" y="144"/><mxPoint x="290" y="345"/></Array></mxGeometry></mxCell><mxCell id="205" style="edgeStyle=orthogonalEdgeStyle;rounded=0;jumpSize=3;orthogonalLoop=1;jettySize=auto;html=1;entryX=0.5;entryY=0;entryDx=0;entryDy=0;strokeWidth=1;" edge="1" parent="151" source="169" target="182"><mxGeometry relative="1" as="geometry"><Array as="points"><mxPoint x="880" y="231"/><mxPoint x="780" y="231"/></Array></mxGeometry></mxCell><mxCell id="206" style="edgeStyle=orthogonalEdgeStyle;rounded=0;jumpSize=3;orthogonalLoop=1;jettySize=auto;html=1;entryX=0;entryY=0.5;entryDx=0;entryDy=0;strokeWidth=1;" edge="1" parent="151" source="153" target="181"><mxGeometry relative="1" as="geometry"><Array as="points"><mxPoint x="290" y="120"/><mxPoint x="290" y="345"/></Array></mxGeometry></mxCell><mxCell id="209" style="edgeStyle=orthogonalEdgeStyle;rounded=0;jumpSize=3;orthogonalLoop=1;jettySize=auto;html=1;entryX=0.5;entryY=0;entryDx=0;entryDy=0;strokeWidth=1;" edge="1" parent="151" source="154" target="183"><mxGeometry relative="1" as="geometry"><Array as="points"><mxPoint x="490" y="142"/><mxPoint x="490" y="41"/><mxPoint x="1260" y="41"/><mxPoint x="1260" y="290"/><mxPoint x="1175" y="290"/></Array></mxGeometry></mxCell><mxCell id="210" style="edgeStyle=orthogonalEdgeStyle;rounded=0;jumpSize=3;orthogonalLoop=1;jettySize=auto;html=1;entryX=0;entryY=0.5;entryDx=0;entryDy=0;strokeWidth=1;" edge="1" parent="151" source="180" target="181"><mxGeometry relative="1" as="geometry"><Array as="points"><mxPoint x="1410" y="201"/><mxPoint x="407" y="201"/><mxPoint x="407" y="345"/></Array></mxGeometry></mxCell><mxCell id="211" style="edgeStyle=orthogonalEdgeStyle;rounded=0;jumpSize=3;orthogonalLoop=1;jettySize=auto;html=1;entryX=0;entryY=0.5;entryDx=0;entryDy=0;strokeWidth=1;" edge="1" parent="151" source="166" target="181"><mxGeometry relative="1" as="geometry"><Array as="points"><mxPoint x="520" y="144"/><mxPoint x="520" y="170"/><mxPoint x="407" y="170"/><mxPoint x="407" y="345"/></Array></mxGeometry></mxCell><mxCell id="212" style="edgeStyle=orthogonalEdgeStyle;rounded=0;jumpSize=3;orthogonalLoop=1;jettySize=auto;html=1;entryX=0.5;entryY=0;entryDx=0;entryDy=0;strokeWidth=1;" edge="1" parent="151" source="165" target="183"><mxGeometry relative="1" as="geometry"><Array as="points"><mxPoint x="760" y="120"/><mxPoint x="760" y="40"/><mxPoint x="1260" y="40"/><mxPoint x="1260" y="290"/><mxPoint x="1175" y="290"/></Array></mxGeometry></mxCell><mxCell id="214" style="edgeStyle=orthogonalEdgeStyle;rounded=0;jumpSize=3;orthogonalLoop=1;jettySize=auto;html=1;entryX=1;entryY=0.5;entryDx=0;entryDy=0;strokeWidth=1;" edge="1" parent="151" source="167" target="182"><mxGeometry relative="1" as="geometry"/></mxCell><mxCell id="215" style="edgeStyle=orthogonalEdgeStyle;rounded=0;jumpSize=3;orthogonalLoop=1;jettySize=auto;html=1;entryX=0;entryY=0.5;entryDx=0;entryDy=0;strokeWidth=1;" edge="1" parent="151" source="163" target="181"><mxGeometry relative="1" as="geometry"><Array as="points"><mxPoint x="1130" y="200"/><mxPoint x="407" y="200"/><mxPoint x="407" y="345"/></Array></mxGeometry></mxCell></root></mxGraphModel></diagram></mxfile>